# This file uses centimeters as units for non-parametric coordinates.

mtllib menu-frame.mtl
g default
v -2.052380 2.128386 9.542224
v -6.048100 2.128386 9.542207
v -2.052380 5.170388 9.542224
v -6.048100 5.170388 9.542207
v -5.831253 2.347217 9.476297
v -2.257448 2.347357 9.476297
v -2.257448 4.884861 9.476297
v -5.831253 4.885599 9.476297
v -5.957452 2.213471 9.476297
v -2.137765 2.213504 9.476297
v -2.137765 5.059548 9.476297
v -5.957452 5.059924 9.476297
v -5.877436 4.952459 9.488040
v -5.877436 2.296143 9.488040
v -2.213592 2.296234 9.488022
v -2.213592 4.951825 9.488022
v -2.052380 4.685486 9.542224
v -5.677487 2.128386 9.542207
v -2.427145 2.128386 9.542207
v -2.245025 2.332607 9.469870
v -2.245025 4.904211 9.469870
v -5.844356 4.904928 9.469888
v -5.844356 2.332483 9.469888
v -2.118289 2.193349 9.472341
v -2.118289 5.085727 9.472341
v -5.978073 5.086016 9.472323
v -5.978073 2.193341 9.472323
v -2.052380 2.128386 9.467436
v -2.052380 5.170388 9.467436
v -2.052666 4.692589 9.467490
v -6.048100 5.170388 9.467418
v -5.684039 2.128661 9.467490
v -2.419412 2.128661 9.467490
v -6.048100 2.128386 9.467418
v -2.101355 2.176194 9.476028
v -2.101355 5.108045 9.476028
v -5.996045 5.108268 9.476046
v -5.996045 2.176186 9.476046
v -2.069600 2.144896 9.461851
v -2.084780 2.159727 9.461600
v -2.069636 5.148783 9.461833
v -2.084780 5.129506 9.461583
v -6.029519 5.148604 9.461762
v -6.013874 5.129930 9.461511
v -6.029519 2.145099 9.461726
v -6.013874 2.159508 9.461511
vt 0.096333 0.126395
vt 0.894961 0.126395
vt 0.096333 0.873605
vt 0.894961 0.873605
vt 0.051250 0.066689
vt 0.945447 0.066689
vt 0.051250 0.929787
vt 0.945447 0.929787
vt 0.039108 0.047303
vt 0.958371 0.047303
vt 0.039108 0.952696
vt 0.958371 0.952696
vt 0.931044 0.914607
vt 0.931044 0.085393
vt 0.062435 0.085393
vt 0.062435 0.914607
vt 0.086553 0.114565
vt 0.086553 0.885435
vt 0.905372 0.885435
vt 0.905372 0.114565
vt -0.000000 -0.000000
vt -0.000000 1.000000
vt -0.000000 0.737696
vt 1.000000 1.000000
vt 0.738570 -0.000000
vt 0.264926 -0.000000
vt 1.000000 -0.000000
vt 0.028767 0.034795
vt 0.028767 0.965205
vt 0.969379 0.965205
vt 0.969379 0.034795
vt 0.018851 0.022801
vt 0.009926 0.012007
vt 0.980072 0.022645
vt 0.980081 0.977366
vt 0.018839 0.977213
vt 0.009938 0.987979
vt 0.989290 0.987830
vt 0.989299 0.012160
vt -0.196689 0.204424
vt -0.228622 0.204424
vt -0.196689 0.795576
vt -0.228622 0.795576
vt -0.103412 0.795576
vt -0.071478 0.795576
vt -0.103412 0.639650
vt -0.071478 0.640514
vt -0.103412 0.204424
vt -0.071478 0.204424
vt -0.160491 0.795576
vt -0.192425 0.795576
vt -0.192425 0.639283
vt -0.160491 0.638965
vt -0.192425 0.359319
vt -0.160491 0.358969
vt -0.192425 0.204424
vt -0.160491 0.204424
vt -0.115776 0.795576
vt -0.147710 0.795576
vt -0.147710 0.204424
vt -0.115776 0.204424
vn -0.001091 -0.184986 -0.982741
vn -0.000344 -0.847102 -0.531430
vn -0.000135 -0.847680 -0.530507
vn 0.000141 -0.847707 -0.530464
vn 0.000355 -0.847165 -0.531329
vn 0.001230 -0.185230 -0.982695
vn -0.155458 0.002144 -0.987840
vn -0.803048 0.000602 -0.595914
vn -0.803057 -0.000598 -0.595901
vn -0.155415 -0.002133 -0.987847
vn 0.004942 -0.170001 -0.985432
vn 0.002088 0.142755 -0.989756
vn -0.002224 0.142956 -0.989727
vn -0.005128 -0.169886 -0.985450
vn -0.172479 -0.003728 -0.985006
vn 0.137516 -0.003396 -0.990494
vn 0.137394 0.003308 -0.990511
vn -0.172582 0.003605 -0.984989
vn -0.000286 0.699235 -0.714892
vn -0.001181 0.382980 -0.923756
vn 0.001231 0.381823 -0.924234
vn 0.000132 0.697749 -0.716343
vn 0.007256 -0.458415 -0.888709
vn -0.007472 -0.458389 -0.888720
vn 0.807976 0.000599 -0.589215
vn 0.164067 0.002369 -0.986446
vn 0.164023 -0.002359 -0.986454
vn 0.807983 -0.000597 -0.589205
vn 0.807574 -0.000298 -0.589767
vn -0.458995 0.000000 -0.888439
vn -0.458995 0.000000 -0.888439
vn -0.458995 0.000000 -0.888439
vn -0.458995 0.000000 -0.888439
vn -0.145012 -0.003394 -0.989424
vn 0.179311 -0.003720 -0.983786
vn 0.484767 -0.003654 -0.874636
vn 0.484836 0.003516 -0.874598
vn 0.179410 0.003602 -0.983768
vn -0.144890 0.003309 -0.989442
vn -0.199513 0.000000 -0.979895
vn -0.199513 0.000000 -0.979895
vn -0.199539 0.000000 -0.979890
vn -0.199539 0.000000 -0.979890
vn 0.213109 0.000000 -0.977028
vn 0.213109 0.000000 -0.977028
vn 0.213145 0.000000 -0.977021
vn 0.213145 0.000000 -0.977021
vn -0.359819 0.000837 -0.933022
vn -0.683964 -0.002602 -0.729511
vn -0.683756 0.002588 -0.729706
vn -0.359741 -0.000835 -0.933052
vn 0.440939 0.000000 -0.897537
vn 0.440962 0.000000 -0.897526
vn 0.440962 0.000000 -0.897526
vn 0.440939 0.000000 -0.897537
vn 0.188830 0.000000 -0.982010
vn 0.188830 0.000000 -0.982010
vn 0.188862 0.000000 -0.982004
vn 0.188862 0.000000 -0.982004
vn -0.201560 0.000000 -0.979476
vn -0.201560 0.000000 -0.979476
vn -0.201589 0.000000 -0.979470
vn -0.201589 0.000000 -0.979470
vn 0.039216 0.846152 -0.531496
vn 0.007518 0.184609 -0.982783
vn -0.007404 0.184932 -0.982723
vn -0.039255 0.846233 -0.531364
vn -0.017119 -0.412842 -0.910642
vn -0.017119 -0.412842 -0.910642
vn 0.017076 -0.412759 -0.910680
vn 0.017076 -0.412759 -0.910680
vn -0.003553 -0.139895 -0.990160
vn 0.010079 0.164868 -0.986264
vn -0.010244 0.164707 -0.986289
vn 0.003429 -0.140062 -0.990137
vn -0.009842 -0.204970 -0.978719
vn -0.009842 -0.204970 -0.978719
vn 0.009851 -0.204984 -0.978716
vn 0.009851 -0.204984 -0.978716
vn 0.010770 0.223930 -0.974546
vn 0.010770 0.223930 -0.974546
vn -0.010781 0.223953 -0.974540
vn -0.010781 0.223953 -0.974540
vn -0.018693 -0.381383 -0.924228
vn -0.032274 -0.696840 -0.716500
vn 0.032104 -0.695481 -0.717827
vn 0.018717 -0.380318 -0.924666
vn 0.022463 0.447119 -0.894192
vn -0.022653 0.446986 -0.894254
vn 0.004455 0.425188 -0.905094
vn -0.004462 0.425108 -0.905131
vn -0.004462 0.425108 -0.905131
vn 0.004455 0.425188 -0.905094
vn -0.000780 0.207196 -0.978299
vn -0.000780 0.207196 -0.978299
vn 0.000780 0.207198 -0.978299
vn 0.000780 0.207198 -0.978299
vn 0.000640 -0.225677 -0.974202
vn 0.000640 -0.225677 -0.974202
vn -0.000640 -0.225658 -0.974206
vn -0.000640 -0.225658 -0.974206
vn -0.465895 -0.003701 -0.884832
vn -0.465970 0.003556 -0.884794
vn 0.999998 -0.000434 -0.001966
vn 0.999996 -0.000217 -0.002934
vn 0.999998 0.000437 -0.001963
vn -0.046429 0.998921 -0.001465
vn 0.046374 0.998923 -0.001416
vn -0.000342 -0.999998 -0.001727
vn -0.000168 -0.999997 -0.002563
vn 0.000170 -0.999997 -0.002562
vn 0.000346 -0.999998 -0.001725
vn 0.655784 -0.002362 -0.754945
vn 0.342486 0.000738 -0.939523
vn 0.342446 -0.000738 -0.939537
vn 0.655635 0.002344 -0.755074
vn -0.999998 0.000464 -0.002092
vn -0.999998 -0.000461 -0.002086
s 1
g Frame MenuChalkboard BackWall geometry
usemtl plainFrames:blinn4SG
f 39/33/1 28/21/2 33/26/3 32/25/4 34/27/5 45/39/6
s 2
f 45/39/7 34/27/8 31/24/9 43/38/10
s 3
f 15/15/11 10/5/12 9/6/13 14/14/14
s 4
f 14/14/15 9/6/16 12/8/17 13/13/18
s 1
f 35/28/19 40/32/20 46/34/21 38/31/22
s 3
f 20/17/23 15/15/11 14/14/14 23/20/24
s 5
f 28/21/25 39/33/26 41/37/27 29/22/28 30/23/29
s off
f 20/17/30 6/1/31 7/3/32 21/18/33
f 10/5/34 15/15/35 20/17/36 21/18/37 16/16/38 11/7/39
f 24/9/40 10/5/41 11/7/42 25/11/43
f 35/28/44 24/9/45 25/11/46 36/29/47
s 5
f 40/32/48 35/28/49 36/29/50 42/36/51
s off
f 8/4/52 5/2/53 23/20/54 22/19/55
f 9/6/56 27/10/57 26/12/58 12/8/59
f 27/10/60 38/31/61 37/30/62 26/12/63
s 6
f 29/22/64 41/37/65 43/38/66 31/24/67
s off
f 21/18/68 7/3/69 8/4/70 22/19/71
s 7
f 11/7/72 16/16/73 13/13/74 12/8/75
s off
f 25/11/76 11/7/77 12/8/78 26/12/79
f 36/29/80 25/11/81 26/12/82 37/30/83
s 6
f 42/36/84 36/29/85 37/30/86 44/35/87
s 7
f 16/16/73 21/18/88 22/19/89 13/13/74
s off
f 5/2/90 6/1/91 20/17/92 23/20/93
f 10/5/94 24/9/95 27/10/96 9/6/97
f 24/9/98 35/28/99 38/31/100 27/10/101
s 4
f 23/20/102 14/14/15 13/13/18 22/19/103
s 5
f 3/44/104 17/46/105 30/47/29 29/45/28
f 17/46/105 1/48/106 28/49/25 30/47/29
s 6
f 31/41/67 4/40/107 3/42/108 29/43/64
s 1
f 1/51/109 19/52/110 33/53/3 28/50/2
f 18/54/111 2/56/112 34/57/5 32/55/4
f 33/53/3 19/52/110 18/54/111 32/55/4
s 2
f 38/31/113 46/34/114 44/35/115 37/30/116
f 34/58/8 2/59/117 4/60/118 31/61/9
s 1
f 40/32/20 39/33/1 45/39/6 46/34/21
s 2
f 46/34/114 45/39/7 43/38/10 44/35/115
s 5
f 39/33/26 40/32/48 42/36/51 41/37/27
s 6
f 41/37/65 42/36/84 44/35/87 43/38/66
